<mxfile host="Electron" agent="Mozilla/5.0 (Macintosh; Intel Mac OS X 10_15_7) AppleWebKit/537.36 (KHTML, like Gecko) draw.io/28.1.2 Chrome/138.0.7204.243 Electron/37.4.0 Safari/537.36" version="28.1.2" pages="2">
  <diagram name="Fram.py RAM Dictionary" id="pHEsUXLYuDOnjVTz-c3P">
    <mxGraphModel dx="1331" dy="600" grid="1" gridSize="10" guides="1" tooltips="1" connect="1" arrows="1" fold="1" page="1" pageScale="1" pageWidth="1100" pageHeight="850" math="0" shadow="0">
      <root>
        <mxCell id="0" />
        <mxCell id="1" parent="0" />
        <mxCell id="ycTcBiLF5rddi-YmPNB9-1" value="Fram.py - Forth RAM Dictionary Structure" style="text;html=1;strokeColor=none;fillColor=none;align=center;verticalAlign=middle;whiteSpace=wrap;rounded=0;fontSize=24;fontFamily=Courier New;fontStyle=1;fontColor=#4CAF50;" vertex="1" parent="1">
          <mxGeometry x="284" y="20" width="600" height="40" as="geometry" />
        </mxCell>
        <mxCell id="ycTcBiLF5rddi-YmPNB9-2" value="" style="rounded=1;whiteSpace=wrap;html=1;fillColor=#2d2d2d;strokeColor=#4CAF50;strokeWidth=2;" vertex="1" parent="1">
          <mxGeometry x="50" y="80" width="1070" height="280" as="geometry" />
        </mxCell>
        <mxCell id="ycTcBiLF5rddi-YmPNB9-3" value="RAM Array Structure (After loading basic words)" style="text;html=1;strokeColor=none;fillColor=none;align=left;verticalAlign=middle;whiteSpace=wrap;rounded=0;fontSize=18;fontFamily=Courier New;fontStyle=1;fontColor=#e0e0e0;" vertex="1" parent="1">
          <mxGeometry x="70" y="100" width="500" height="20" as="geometry" />
        </mxCell>
        <mxCell id="ycTcBiLF5rddi-YmPNB9-4" value="" style="rounded=0;whiteSpace=wrap;html=1;fillColor=#4CAF50;strokeColor=#333333;" vertex="1" parent="1">
          <mxGeometry x="70" y="130" width="20" height="15" as="geometry" />
        </mxCell>
        <mxCell id="ycTcBiLF5rddi-YmPNB9-5" value="Word Name" style="text;html=1;strokeColor=none;fillColor=none;align=left;verticalAlign=middle;whiteSpace=wrap;rounded=0;fontSize=12;fontFamily=Courier New;fontColor=#e0e0e0;" vertex="1" parent="1">
          <mxGeometry x="100" y="125" width="80" height="25" as="geometry" />
        </mxCell>
        <mxCell id="ycTcBiLF5rddi-YmPNB9-6" value="" style="rounded=0;whiteSpace=wrap;html=1;fillColor=#2196F3;strokeColor=#333333;" vertex="1" parent="1">
          <mxGeometry x="200" y="130" width="20" height="15" as="geometry" />
        </mxCell>
        <mxCell id="ycTcBiLF5rddi-YmPNB9-7" value="Link Pointer" style="text;html=1;strokeColor=none;fillColor=none;align=left;verticalAlign=middle;whiteSpace=wrap;rounded=0;fontSize=12;fontFamily=Courier New;fontColor=#e0e0e0;" vertex="1" parent="1">
          <mxGeometry x="230" y="125" width="90" height="25" as="geometry" />
        </mxCell>
        <mxCell id="ycTcBiLF5rddi-YmPNB9-8" value="" style="rounded=0;whiteSpace=wrap;html=1;fillColor=#FF9800;strokeColor=#333333;" vertex="1" parent="1">
          <mxGeometry x="340" y="130" width="20" height="15" as="geometry" />
        </mxCell>
        <mxCell id="ycTcBiLF5rddi-YmPNB9-9" value="Code Pointer" style="text;html=1;strokeColor=none;fillColor=none;align=left;verticalAlign=middle;whiteSpace=wrap;rounded=0;fontSize=12;fontFamily=Courier New;fontColor=#e0e0e0;" vertex="1" parent="1">
          <mxGeometry x="370" y="125" width="90" height="25" as="geometry" />
        </mxCell>
        <mxCell id="ycTcBiLF5rddi-YmPNB9-10" value="&quot;bye&quot;" style="rounded=0;whiteSpace=wrap;html=1;fillColor=#4CAF50;strokeColor=#333333;fontFamily=Courier New;fontSize=12;fontColor=#000000;fontStyle=1;" vertex="1" parent="1">
          <mxGeometry x="70" y="170" width="60" height="40" as="geometry" />
        </mxCell>
        <mxCell id="ycTcBiLF5rddi-YmPNB9-11" value="0" style="text;html=1;strokeColor=none;fillColor=none;align=center;verticalAlign=middle;whiteSpace=wrap;rounded=0;fontSize=10;fontFamily=Courier New;fontColor=#888888;" vertex="1" parent="1">
          <mxGeometry x="85" y="155" width="30" height="15" as="geometry" />
        </mxCell>
        <mxCell id="ycTcBiLF5rddi-YmPNB9-12" value="-1" style="rounded=0;whiteSpace=wrap;html=1;fillColor=#2196F3;strokeColor=#333333;fontFamily=Courier New;fontSize=12;fontColor=#ffffff;fontStyle=1;" vertex="1" parent="1">
          <mxGeometry x="140" y="170" width="60" height="40" as="geometry" />
        </mxCell>
        <mxCell id="ycTcBiLF5rddi-YmPNB9-13" value="1" style="text;html=1;strokeColor=none;fillColor=none;align=center;verticalAlign=middle;whiteSpace=wrap;rounded=0;fontSize=10;fontFamily=Courier New;fontColor=#888888;" vertex="1" parent="1">
          <mxGeometry x="155" y="155" width="30" height="15" as="geometry" />
        </mxCell>
        <mxCell id="ycTcBiLF5rddi-YmPNB9-14" value="xbye" style="rounded=0;whiteSpace=wrap;html=1;fillColor=#FF9800;strokeColor=#333333;fontFamily=Courier New;fontSize=12;fontColor=#000000;fontStyle=1;" vertex="1" parent="1">
          <mxGeometry x="210" y="170" width="60" height="40" as="geometry" />
        </mxCell>
        <mxCell id="ycTcBiLF5rddi-YmPNB9-15" value="2" style="text;html=1;strokeColor=none;fillColor=none;align=center;verticalAlign=middle;whiteSpace=wrap;rounded=0;fontSize=10;fontFamily=Courier New;fontColor=#888888;" vertex="1" parent="1">
          <mxGeometry x="225" y="155" width="30" height="15" as="geometry" />
        </mxCell>
        <mxCell id="ycTcBiLF5rddi-YmPNB9-16" value="&quot;&#39;&quot;" style="rounded=0;whiteSpace=wrap;html=1;fillColor=#4CAF50;strokeColor=#333333;fontFamily=Courier New;fontSize=12;fontColor=#000000;fontStyle=1;" vertex="1" parent="1">
          <mxGeometry x="280" y="170" width="60" height="40" as="geometry" />
        </mxCell>
        <mxCell id="ycTcBiLF5rddi-YmPNB9-17" value="3" style="text;html=1;strokeColor=none;fillColor=none;align=center;verticalAlign=middle;whiteSpace=wrap;rounded=0;fontSize=10;fontFamily=Courier New;fontColor=#888888;" vertex="1" parent="1">
          <mxGeometry x="295" y="155" width="30" height="15" as="geometry" />
        </mxCell>
        <mxCell id="ycTcBiLF5rddi-YmPNB9-18" value="0" style="rounded=0;whiteSpace=wrap;html=1;fillColor=#2196F3;strokeColor=#333333;fontFamily=Courier New;fontSize=12;fontColor=#ffffff;fontStyle=1;" vertex="1" parent="1">
          <mxGeometry x="350" y="170" width="60" height="40" as="geometry" />
        </mxCell>
        <mxCell id="ycTcBiLF5rddi-YmPNB9-19" value="4" style="text;html=1;strokeColor=none;fillColor=none;align=center;verticalAlign=middle;whiteSpace=wrap;rounded=0;fontSize=10;fontFamily=Courier New;fontColor=#888888;" vertex="1" parent="1">
          <mxGeometry x="365" y="155" width="30" height="15" as="geometry" />
        </mxCell>
        <mxCell id="ycTcBiLF5rddi-YmPNB9-20" value="xtick" style="rounded=0;whiteSpace=wrap;html=1;fillColor=#FF9800;strokeColor=#333333;fontFamily=Courier New;fontSize=12;fontColor=#000000;fontStyle=1;" vertex="1" parent="1">
          <mxGeometry x="420" y="170" width="60" height="40" as="geometry" />
        </mxCell>
        <mxCell id="ycTcBiLF5rddi-YmPNB9-21" value="5" style="text;html=1;strokeColor=none;fillColor=none;align=center;verticalAlign=middle;whiteSpace=wrap;rounded=0;fontSize=10;fontFamily=Courier New;fontColor=#888888;" vertex="1" parent="1">
          <mxGeometry x="435" y="155" width="30" height="15" as="geometry" />
        </mxCell>
        <mxCell id="ycTcBiLF5rddi-YmPNB9-22" value="&quot;words&quot;" style="rounded=0;whiteSpace=wrap;html=1;fillColor=#4CAF50;strokeColor=#333333;fontFamily=Courier New;fontSize=11;fontColor=#000000;fontStyle=1;" vertex="1" parent="1">
          <mxGeometry x="70" y="220" width="60" height="40" as="geometry" />
        </mxCell>
        <mxCell id="ycTcBiLF5rddi-YmPNB9-23" value="6" style="text;html=1;strokeColor=none;fillColor=none;align=center;verticalAlign=middle;whiteSpace=wrap;rounded=0;fontSize=10;fontFamily=Courier New;fontColor=#888888;" vertex="1" parent="1">
          <mxGeometry x="85" y="205" width="30" height="15" as="geometry" />
        </mxCell>
        <mxCell id="ycTcBiLF5rddi-YmPNB9-24" value="3" style="rounded=0;whiteSpace=wrap;html=1;fillColor=#2196F3;strokeColor=#333333;fontFamily=Courier New;fontSize=12;fontColor=#ffffff;fontStyle=1;" vertex="1" parent="1">
          <mxGeometry x="140" y="220" width="60" height="40" as="geometry" />
        </mxCell>
        <mxCell id="ycTcBiLF5rddi-YmPNB9-25" value="7" style="text;html=1;strokeColor=none;fillColor=none;align=center;verticalAlign=middle;whiteSpace=wrap;rounded=0;fontSize=10;fontFamily=Courier New;fontColor=#888888;" vertex="1" parent="1">
          <mxGeometry x="155" y="205" width="30" height="15" as="geometry" />
        </mxCell>
        <mxCell id="ycTcBiLF5rddi-YmPNB9-26" value="xwords" style="rounded=0;whiteSpace=wrap;html=1;fillColor=#FF9800;strokeColor=#333333;fontFamily=Courier New;fontSize=11;fontColor=#000000;fontStyle=1;" vertex="1" parent="1">
          <mxGeometry x="210" y="220" width="60" height="40" as="geometry" />
        </mxCell>
        <mxCell id="ycTcBiLF5rddi-YmPNB9-27" value="8" style="text;html=1;strokeColor=none;fillColor=none;align=center;verticalAlign=middle;whiteSpace=wrap;rounded=0;fontSize=10;fontFamily=Courier New;fontColor=#888888;" vertex="1" parent="1">
          <mxGeometry x="225" y="205" width="30" height="15" as="geometry" />
        </mxCell>
        <mxCell id="ycTcBiLF5rddi-YmPNB9-28" value="&quot;+&quot;" style="rounded=0;whiteSpace=wrap;html=1;fillColor=#4CAF50;strokeColor=#333333;fontFamily=Courier New;fontSize=12;fontColor=#000000;fontStyle=1;" vertex="1" parent="1">
          <mxGeometry x="280" y="220" width="60" height="40" as="geometry" />
        </mxCell>
        <mxCell id="ycTcBiLF5rddi-YmPNB9-29" value="9" style="text;html=1;strokeColor=none;fillColor=none;align=center;verticalAlign=middle;whiteSpace=wrap;rounded=0;fontSize=10;fontFamily=Courier New;fontColor=#888888;" vertex="1" parent="1">
          <mxGeometry x="295" y="205" width="30" height="15" as="geometry" />
        </mxCell>
        <mxCell id="ycTcBiLF5rddi-YmPNB9-30" value="6" style="rounded=0;whiteSpace=wrap;html=1;fillColor=#2196F3;strokeColor=#333333;fontFamily=Courier New;fontSize=12;fontColor=#ffffff;fontStyle=1;" vertex="1" parent="1">
          <mxGeometry x="350" y="220" width="60" height="40" as="geometry" />
        </mxCell>
        <mxCell id="ycTcBiLF5rddi-YmPNB9-31" value="10" style="text;html=1;strokeColor=none;fillColor=none;align=center;verticalAlign=middle;whiteSpace=wrap;rounded=0;fontSize=10;fontFamily=Courier New;fontColor=#888888;" vertex="1" parent="1">
          <mxGeometry x="360" y="205" width="40" height="15" as="geometry" />
        </mxCell>
        <mxCell id="ycTcBiLF5rddi-YmPNB9-32" value="λ:add" style="rounded=0;whiteSpace=wrap;html=1;fillColor=#FF9800;strokeColor=#333333;fontFamily=Courier New;fontSize=11;fontColor=#000000;fontStyle=1;" vertex="1" parent="1">
          <mxGeometry x="420" y="220" width="60" height="40" as="geometry" />
        </mxCell>
        <mxCell id="ycTcBiLF5rddi-YmPNB9-33" value="11" style="text;html=1;strokeColor=none;fillColor=none;align=center;verticalAlign=middle;whiteSpace=wrap;rounded=0;fontSize=10;fontFamily=Courier New;fontColor=#888888;" vertex="1" parent="1">
          <mxGeometry x="430" y="205" width="40" height="15" as="geometry" />
        </mxCell>
        <mxCell id="ycTcBiLF5rddi-YmPNB9-34" value="" style="curved=1;endArrow=classic;html=1;strokeColor=#FF5722;strokeWidth=2;fillColor=none;" edge="1" parent="1">
          <mxGeometry width="50" height="50" relative="1" as="geometry">
            <mxPoint x="380" y="220" as="sourcePoint" />
            <mxPoint x="100" y="220" as="targetPoint" />
            <Array as="points">
              <mxPoint x="240" y="185" />
            </Array>
          </mxGeometry>
        </mxCell>
        <mxCell id="ycTcBiLF5rddi-YmPNB9-35" value="" style="curved=1;endArrow=classic;html=1;strokeColor=#FF5722;strokeWidth=2;fillColor=none;" edge="1" parent="1">
          <mxGeometry width="50" height="50" relative="1" as="geometry">
            <mxPoint x="170" y="220" as="sourcePoint" />
            <mxPoint x="310" y="170" as="targetPoint" />
            <Array as="points">
              <mxPoint x="240" y="185" />
            </Array>
          </mxGeometry>
        </mxCell>
        <mxCell id="ycTcBiLF5rddi-YmPNB9-36" value="" style="curved=1;endArrow=classic;html=1;strokeColor=#FF5722;strokeWidth=2;fillColor=none;" edge="1" parent="1">
          <mxGeometry width="50" height="50" relative="1" as="geometry">
            <mxPoint x="380" y="170" as="sourcePoint" />
            <mxPoint x="100" y="170" as="targetPoint" />
            <Array as="points">
              <mxPoint x="240" y="140" />
            </Array>
          </mxGeometry>
        </mxCell>
        <mxCell id="ycTcBiLF5rddi-YmPNB9-37" value="RAM_NEXT = 9 (points to most recent word &quot;+&quot;)" style="text;html=1;strokeColor=none;fillColor=none;align=left;verticalAlign=middle;whiteSpace=wrap;rounded=0;fontSize=12;fontFamily=Courier New;fontColor=#e0e0e0;" vertex="1" parent="1">
          <mxGeometry x="70" y="280" width="400" height="20" as="geometry" />
        </mxCell>
        <mxCell id="ycTcBiLF5rddi-YmPNB9-38" value="" style="endArrow=classic;html=1;strokeColor=#4CAF50;strokeWidth=2;" edge="1" parent="1">
          <mxGeometry width="50" height="50" relative="1" as="geometry">
            <mxPoint x="200" y="280" as="sourcePoint" />
            <mxPoint x="310" y="260" as="targetPoint" />
          </mxGeometry>
        </mxCell>
        <mxCell id="ycTcBiLF5rddi-YmPNB9-39" value="" style="rounded=1;whiteSpace=wrap;html=1;fillColor=#2d2d2d;strokeColor=#4CAF50;strokeWidth=2;" vertex="1" parent="1">
          <mxGeometry x="50" y="380" width="1070" height="200" as="geometry" />
        </mxCell>
        <mxCell id="ycTcBiLF5rddi-YmPNB9-40" value="Dictionary Search Process" style="text;html=1;strokeColor=none;fillColor=none;align=left;verticalAlign=middle;whiteSpace=wrap;rounded=0;fontSize=18;fontFamily=Courier New;fontStyle=1;fontColor=#e0e0e0;" vertex="1" parent="1">
          <mxGeometry x="70" y="400" width="300" height="20" as="geometry" />
        </mxCell>
        <mxCell id="ycTcBiLF5rddi-YmPNB9-41" value="Start Search&#xa;x = RAM_NEXT (9)" style="rounded=1;whiteSpace=wrap;html=1;fillColor=#1a1a1a;strokeColor=#555555;fontFamily=Courier New;fontSize=11;fontColor=#e0e0e0;" vertex="1" parent="1">
          <mxGeometry x="70" y="430" width="120" height="60" as="geometry" />
        </mxCell>
        <mxCell id="ycTcBiLF5rddi-YmPNB9-42" value="Check Name&#xa;RAM[x] == target?" style="rounded=1;whiteSpace=wrap;html=1;fillColor=#1a1a1a;strokeColor=#555555;fontFamily=Courier New;fontSize=11;fontColor=#e0e0e0;" vertex="1" parent="1">
          <mxGeometry x="220" y="430" width="120" height="60" as="geometry" />
        </mxCell>
        <mxCell id="ycTcBiLF5rddi-YmPNB9-43" value="If Match&#xa;Return x + 2&#xa;(execution token)" style="rounded=1;whiteSpace=wrap;html=1;fillColor=#1a1a1a;strokeColor=#555555;fontFamily=Courier New;fontSize=11;fontColor=#e0e0e0;" vertex="1" parent="1">
          <mxGeometry x="370" y="430" width="120" height="60" as="geometry" />
        </mxCell>
        <mxCell id="ycTcBiLF5rddi-YmPNB9-44" value="Follow Link&#xa;x = RAM[x + 1]" style="rounded=1;whiteSpace=wrap;html=1;fillColor=#1a1a1a;strokeColor=#555555;fontFamily=Courier New;fontSize=11;fontColor=#e0e0e0;" vertex="1" parent="1">
          <mxGeometry x="70" y="510" width="120" height="60" as="geometry" />
        </mxCell>
        <mxCell id="ycTcBiLF5rddi-YmPNB9-45" value="Continue&#xa;Until x == -1&#xa;(end of chain)" style="rounded=1;whiteSpace=wrap;html=1;fillColor=#1a1a1a;strokeColor=#555555;fontFamily=Courier New;fontSize=11;fontColor=#e0e0e0;" vertex="1" parent="1">
          <mxGeometry x="220" y="510" width="120" height="60" as="geometry" />
        </mxCell>
        <mxCell id="ycTcBiLF5rddi-YmPNB9-46" value="" style="endArrow=classic;html=1;strokeColor=#4CAF50;strokeWidth=2;" edge="1" parent="1" source="ycTcBiLF5rddi-YmPNB9-41" target="ycTcBiLF5rddi-YmPNB9-42">
          <mxGeometry width="50" height="50" relative="1" as="geometry">
            <mxPoint x="190" y="460" as="sourcePoint" />
            <mxPoint x="220" y="460" as="targetPoint" />
          </mxGeometry>
        </mxCell>
        <mxCell id="ycTcBiLF5rddi-YmPNB9-47" value="" style="endArrow=classic;html=1;strokeColor=#4CAF50;strokeWidth=2;" edge="1" parent="1" source="ycTcBiLF5rddi-YmPNB9-42" target="ycTcBiLF5rddi-YmPNB9-43">
          <mxGeometry width="50" height="50" relative="1" as="geometry">
            <mxPoint x="340" y="460" as="sourcePoint" />
            <mxPoint x="370" y="460" as="targetPoint" />
          </mxGeometry>
        </mxCell>
        <mxCell id="ycTcBiLF5rddi-YmPNB9-48" value="" style="endArrow=classic;html=1;strokeColor=#4CAF50;strokeWidth=2;" edge="1" parent="1" source="ycTcBiLF5rddi-YmPNB9-44" target="ycTcBiLF5rddi-YmPNB9-45">
          <mxGeometry width="50" height="50" relative="1" as="geometry">
            <mxPoint x="190" y="540" as="sourcePoint" />
            <mxPoint x="220" y="540" as="targetPoint" />
          </mxGeometry>
        </mxCell>
        <mxCell id="ycTcBiLF5rddi-YmPNB9-49" value="↓ (if no match)" style="endArrow=classic;html=1;strokeColor=#4CAF50;strokeWidth=2;" edge="1" parent="1">
          <mxGeometry width="50" height="50" relative="1" as="geometry">
            <mxPoint x="280" y="490" as="sourcePoint" />
            <mxPoint x="280" y="510" as="targetPoint" />
          </mxGeometry>
        </mxCell>
      </root>
    </mxGraphModel>
  </diagram>
  <diagram id="4nlL2m9TFj3czvViA6M5" name="RAM array of bytes">
    <mxGraphModel dx="624" dy="323" grid="1" gridSize="10" guides="1" tooltips="1" connect="1" arrows="1" fold="1" page="1" pageScale="1" pageWidth="1100" pageHeight="850" math="0" shadow="0">
      <root>
        <mxCell id="0" />
        <mxCell id="1" parent="0" />
        <mxCell id="Cxth4Tz4AN_hJ6zlJMw6-1" value="bye&amp;nbsp;" style="rounded=1;whiteSpace=wrap;html=1;" vertex="1" parent="1">
          <mxGeometry x="80" y="80" width="80" height="30" as="geometry" />
        </mxCell>
        <mxCell id="Cxth4Tz4AN_hJ6zlJMw6-2" value="-1" style="rounded=1;whiteSpace=wrap;html=1;" vertex="1" parent="1">
          <mxGeometry x="160" y="80" width="80" height="30" as="geometry" />
        </mxCell>
        <mxCell id="Cxth4Tz4AN_hJ6zlJMw6-3" value="&amp;amp;xbye" style="rounded=1;whiteSpace=wrap;html=1;" vertex="1" parent="1">
          <mxGeometry x="240" y="80" width="80" height="30" as="geometry" />
        </mxCell>
        <mxCell id="Wpz3WKlENkfW8VNBVMBR-1" value="&#39;&amp;nbsp; &amp;nbsp;" style="rounded=1;whiteSpace=wrap;html=1;" vertex="1" parent="1">
          <mxGeometry x="360" y="80" width="80" height="30" as="geometry" />
        </mxCell>
        <mxCell id="Wpz3WKlENkfW8VNBVMBR-2" value="0" style="rounded=1;whiteSpace=wrap;html=1;" vertex="1" parent="1">
          <mxGeometry x="440" y="80" width="80" height="30" as="geometry" />
        </mxCell>
        <mxCell id="Wpz3WKlENkfW8VNBVMBR-3" value="&amp;amp;xtick" style="rounded=1;whiteSpace=wrap;html=1;" vertex="1" parent="1">
          <mxGeometry x="520" y="80" width="80" height="30" as="geometry" />
        </mxCell>
        <mxCell id="Wpz3WKlENkfW8VNBVMBR-4" value="" style="rounded=1;whiteSpace=wrap;html=1;" vertex="1" parent="1">
          <mxGeometry x="80" y="160" width="80" height="30" as="geometry" />
        </mxCell>
        <mxCell id="Wpz3WKlENkfW8VNBVMBR-5" value="" style="rounded=1;whiteSpace=wrap;html=1;" vertex="1" parent="1">
          <mxGeometry x="160" y="160" width="80" height="30" as="geometry" />
        </mxCell>
        <mxCell id="Wpz3WKlENkfW8VNBVMBR-6" value="" style="rounded=1;whiteSpace=wrap;html=1;" vertex="1" parent="1">
          <mxGeometry x="240" y="160" width="80" height="30" as="geometry" />
        </mxCell>
        <mxCell id="Wpz3WKlENkfW8VNBVMBR-7" value="" style="rounded=1;whiteSpace=wrap;html=1;" vertex="1" parent="1">
          <mxGeometry x="360" y="160" width="80" height="30" as="geometry" />
        </mxCell>
        <mxCell id="Wpz3WKlENkfW8VNBVMBR-8" value="" style="rounded=1;whiteSpace=wrap;html=1;" vertex="1" parent="1">
          <mxGeometry x="440" y="160" width="80" height="30" as="geometry" />
        </mxCell>
        <mxCell id="Wpz3WKlENkfW8VNBVMBR-9" value="" style="rounded=1;whiteSpace=wrap;html=1;" vertex="1" parent="1">
          <mxGeometry x="520" y="160" width="80" height="30" as="geometry" />
        </mxCell>
        <mxCell id="Wpz3WKlENkfW8VNBVMBR-18" value="" style="rounded=1;whiteSpace=wrap;html=1;" vertex="1" parent="1">
          <mxGeometry x="200" y="280" width="20" height="20" as="geometry" />
        </mxCell>
        <mxCell id="Wpz3WKlENkfW8VNBVMBR-19" value="" style="rounded=1;whiteSpace=wrap;html=1;" vertex="1" parent="1">
          <mxGeometry x="200" y="280" width="20" height="20" as="geometry" />
        </mxCell>
        <mxCell id="Wpz3WKlENkfW8VNBVMBR-20" value="" style="rounded=1;whiteSpace=wrap;html=1;" vertex="1" parent="1">
          <mxGeometry x="200" y="300" width="20" height="20" as="geometry" />
        </mxCell>
        <mxCell id="Wpz3WKlENkfW8VNBVMBR-21" value="" style="rounded=1;whiteSpace=wrap;html=1;" vertex="1" parent="1">
          <mxGeometry x="200" y="320" width="20" height="20" as="geometry" />
        </mxCell>
        <mxCell id="Wpz3WKlENkfW8VNBVMBR-22" value="" style="rounded=1;whiteSpace=wrap;html=1;" vertex="1" parent="1">
          <mxGeometry x="200" y="320" width="20" height="20" as="geometry" />
        </mxCell>
        <mxCell id="Wpz3WKlENkfW8VNBVMBR-23" value="" style="rounded=1;whiteSpace=wrap;html=1;" vertex="1" parent="1">
          <mxGeometry x="200" y="340" width="20" height="20" as="geometry" />
        </mxCell>
        <mxCell id="Wpz3WKlENkfW8VNBVMBR-24" value="" style="rounded=1;whiteSpace=wrap;html=1;" vertex="1" parent="1">
          <mxGeometry x="200" y="360" width="20" height="20" as="geometry" />
        </mxCell>
        <mxCell id="Wpz3WKlENkfW8VNBVMBR-25" value="" style="rounded=1;whiteSpace=wrap;html=1;" vertex="1" parent="1">
          <mxGeometry x="200" y="360" width="20" height="20" as="geometry" />
        </mxCell>
        <mxCell id="Wpz3WKlENkfW8VNBVMBR-26" value="" style="rounded=1;whiteSpace=wrap;html=1;" vertex="1" parent="1">
          <mxGeometry x="200" y="380" width="20" height="20" as="geometry" />
        </mxCell>
        <mxCell id="Wpz3WKlENkfW8VNBVMBR-27" value="" style="rounded=1;whiteSpace=wrap;html=1;" vertex="1" parent="1">
          <mxGeometry x="200" y="400" width="20" height="20" as="geometry" />
        </mxCell>
        <mxCell id="Wpz3WKlENkfW8VNBVMBR-28" value="" style="rounded=1;whiteSpace=wrap;html=1;" vertex="1" parent="1">
          <mxGeometry x="200" y="400" width="20" height="20" as="geometry" />
        </mxCell>
        <mxCell id="Wpz3WKlENkfW8VNBVMBR-29" value="" style="rounded=1;whiteSpace=wrap;html=1;" vertex="1" parent="1">
          <mxGeometry x="200" y="420" width="20" height="20" as="geometry" />
        </mxCell>
        <mxCell id="Wpz3WKlENkfW8VNBVMBR-30" value="" style="rounded=1;whiteSpace=wrap;html=1;" vertex="1" parent="1">
          <mxGeometry x="200" y="440" width="20" height="20" as="geometry" />
        </mxCell>
        <mxCell id="Wpz3WKlENkfW8VNBVMBR-31" value="" style="rounded=1;whiteSpace=wrap;html=1;" vertex="1" parent="1">
          <mxGeometry x="200" y="440" width="20" height="20" as="geometry" />
        </mxCell>
        <mxCell id="Wpz3WKlENkfW8VNBVMBR-32" value="" style="rounded=1;whiteSpace=wrap;html=1;" vertex="1" parent="1">
          <mxGeometry x="200" y="460" width="20" height="20" as="geometry" />
        </mxCell>
        <mxCell id="Wpz3WKlENkfW8VNBVMBR-33" value="" style="rounded=1;whiteSpace=wrap;html=1;" vertex="1" parent="1">
          <mxGeometry x="200" y="480" width="20" height="20" as="geometry" />
        </mxCell>
        <mxCell id="Wpz3WKlENkfW8VNBVMBR-34" value="" style="rounded=1;whiteSpace=wrap;html=1;" vertex="1" parent="1">
          <mxGeometry x="200" y="480" width="20" height="20" as="geometry" />
        </mxCell>
        <mxCell id="Wpz3WKlENkfW8VNBVMBR-35" value="" style="rounded=1;whiteSpace=wrap;html=1;" vertex="1" parent="1">
          <mxGeometry x="200" y="500" width="20" height="20" as="geometry" />
        </mxCell>
        <mxCell id="9xnOEN_wwu08kPwIAvKj-1" value="" style="rounded=1;whiteSpace=wrap;html=1;" vertex="1" parent="1">
          <mxGeometry x="200" y="280" width="20" height="20" as="geometry" />
        </mxCell>
        <mxCell id="9xnOEN_wwu08kPwIAvKj-2" value="0" style="rounded=1;whiteSpace=wrap;html=1;strokeColor=none;labelBackgroundColor=none;textOpacity=50;fillColor=none;" vertex="1" parent="1">
          <mxGeometry x="70" y="50" width="20" height="20" as="geometry" />
        </mxCell>
        <mxCell id="9xnOEN_wwu08kPwIAvKj-3" value="1" style="rounded=1;whiteSpace=wrap;html=1;strokeColor=none;labelBackgroundColor=none;textOpacity=50;fillColor=none;" vertex="1" parent="1">
          <mxGeometry x="110" y="50" width="20" height="20" as="geometry" />
        </mxCell>
        <mxCell id="9xnOEN_wwu08kPwIAvKj-4" value="2" style="rounded=1;whiteSpace=wrap;html=1;strokeColor=none;labelBackgroundColor=none;textOpacity=50;fillColor=none;" vertex="1" parent="1">
          <mxGeometry x="150" y="50" width="20" height="20" as="geometry" />
        </mxCell>
        <mxCell id="9xnOEN_wwu08kPwIAvKj-5" value="3" style="rounded=1;whiteSpace=wrap;html=1;strokeColor=none;labelBackgroundColor=none;textOpacity=50;fillColor=none;" vertex="1" parent="1">
          <mxGeometry x="190" y="50" width="20" height="20" as="geometry" />
        </mxCell>
        <mxCell id="9xnOEN_wwu08kPwIAvKj-6" value="4" style="rounded=1;whiteSpace=wrap;html=1;strokeColor=none;labelBackgroundColor=none;textOpacity=50;fillColor=none;" vertex="1" parent="1">
          <mxGeometry x="230" y="50" width="20" height="20" as="geometry" />
        </mxCell>
        <mxCell id="9xnOEN_wwu08kPwIAvKj-7" value="5" style="rounded=1;whiteSpace=wrap;html=1;strokeColor=none;labelBackgroundColor=none;textOpacity=50;fillColor=none;" vertex="1" parent="1">
          <mxGeometry x="270" y="50" width="20" height="20" as="geometry" />
        </mxCell>
        <mxCell id="9xnOEN_wwu08kPwIAvKj-8" value="6" style="rounded=1;whiteSpace=wrap;html=1;strokeColor=none;labelBackgroundColor=none;textOpacity=50;fillColor=none;" vertex="1" parent="1">
          <mxGeometry x="350" y="50" width="20" height="20" as="geometry" />
        </mxCell>
        <mxCell id="9xnOEN_wwu08kPwIAvKj-9" value="7" style="rounded=1;whiteSpace=wrap;html=1;strokeColor=none;labelBackgroundColor=none;textOpacity=50;fillColor=none;" vertex="1" parent="1">
          <mxGeometry x="390" y="50" width="20" height="20" as="geometry" />
        </mxCell>
        <mxCell id="9xnOEN_wwu08kPwIAvKj-10" value="8" style="rounded=1;whiteSpace=wrap;html=1;strokeColor=none;labelBackgroundColor=none;textOpacity=50;fillColor=none;" vertex="1" parent="1">
          <mxGeometry x="430" y="50" width="20" height="20" as="geometry" />
        </mxCell>
        <mxCell id="9xnOEN_wwu08kPwIAvKj-11" value="9" style="rounded=1;whiteSpace=wrap;html=1;strokeColor=none;labelBackgroundColor=none;textOpacity=50;fillColor=none;" vertex="1" parent="1">
          <mxGeometry x="470" y="50" width="20" height="20" as="geometry" />
        </mxCell>
        <mxCell id="9xnOEN_wwu08kPwIAvKj-12" value="A" style="rounded=1;whiteSpace=wrap;html=1;strokeColor=none;labelBackgroundColor=none;textOpacity=50;fillColor=none;" vertex="1" parent="1">
          <mxGeometry x="510" y="50" width="20" height="20" as="geometry" />
        </mxCell>
        <mxCell id="9xnOEN_wwu08kPwIAvKj-13" value="B" style="rounded=1;whiteSpace=wrap;html=1;strokeColor=none;labelBackgroundColor=none;textOpacity=50;fillColor=none;" vertex="1" parent="1">
          <mxGeometry x="550" y="50" width="20" height="20" as="geometry" />
        </mxCell>
        <mxCell id="9xnOEN_wwu08kPwIAvKj-14" value="C" style="rounded=1;whiteSpace=wrap;html=1;strokeColor=none;labelBackgroundColor=none;textOpacity=50;fillColor=none;" vertex="1" parent="1">
          <mxGeometry x="70" y="130" width="20" height="20" as="geometry" />
        </mxCell>
        <mxCell id="9xnOEN_wwu08kPwIAvKj-15" value="D" style="rounded=1;whiteSpace=wrap;html=1;strokeColor=none;labelBackgroundColor=none;textOpacity=50;fillColor=none;" vertex="1" parent="1">
          <mxGeometry x="110" y="130" width="20" height="20" as="geometry" />
        </mxCell>
        <mxCell id="9xnOEN_wwu08kPwIAvKj-16" value="E" style="rounded=1;whiteSpace=wrap;html=1;strokeColor=none;labelBackgroundColor=none;textOpacity=50;fillColor=none;" vertex="1" parent="1">
          <mxGeometry x="150" y="130" width="20" height="20" as="geometry" />
        </mxCell>
        <mxCell id="9xnOEN_wwu08kPwIAvKj-17" value="F" style="rounded=1;whiteSpace=wrap;html=1;strokeColor=none;labelBackgroundColor=none;textOpacity=50;fillColor=none;" vertex="1" parent="1">
          <mxGeometry x="190" y="130" width="20" height="20" as="geometry" />
        </mxCell>
        <mxCell id="9xnOEN_wwu08kPwIAvKj-18" value="10" style="rounded=1;whiteSpace=wrap;html=1;strokeColor=none;labelBackgroundColor=none;textOpacity=50;fillColor=none;" vertex="1" parent="1">
          <mxGeometry x="230" y="130" width="20" height="20" as="geometry" />
        </mxCell>
        <mxCell id="9xnOEN_wwu08kPwIAvKj-19" value="11" style="rounded=1;whiteSpace=wrap;html=1;strokeColor=none;labelBackgroundColor=none;textOpacity=50;fillColor=none;" vertex="1" parent="1">
          <mxGeometry x="270" y="130" width="20" height="20" as="geometry" />
        </mxCell>
        <mxCell id="9xnOEN_wwu08kPwIAvKj-20" value="12" style="rounded=1;whiteSpace=wrap;html=1;strokeColor=none;labelBackgroundColor=none;textOpacity=50;fillColor=none;" vertex="1" parent="1">
          <mxGeometry x="350" y="130" width="20" height="20" as="geometry" />
        </mxCell>
        <mxCell id="9xnOEN_wwu08kPwIAvKj-21" value="13" style="rounded=1;whiteSpace=wrap;html=1;strokeColor=none;labelBackgroundColor=none;textOpacity=50;fillColor=none;" vertex="1" parent="1">
          <mxGeometry x="390" y="130" width="20" height="20" as="geometry" />
        </mxCell>
        <mxCell id="9xnOEN_wwu08kPwIAvKj-22" value="14" style="rounded=1;whiteSpace=wrap;html=1;strokeColor=none;labelBackgroundColor=none;textOpacity=50;fillColor=none;" vertex="1" parent="1">
          <mxGeometry x="430" y="130" width="20" height="20" as="geometry" />
        </mxCell>
        <mxCell id="9xnOEN_wwu08kPwIAvKj-23" value="15" style="rounded=1;whiteSpace=wrap;html=1;strokeColor=none;labelBackgroundColor=none;textOpacity=50;fillColor=none;" vertex="1" parent="1">
          <mxGeometry x="470" y="130" width="20" height="20" as="geometry" />
        </mxCell>
        <mxCell id="9xnOEN_wwu08kPwIAvKj-24" value="16" style="rounded=1;whiteSpace=wrap;html=1;strokeColor=none;labelBackgroundColor=none;textOpacity=50;fillColor=none;" vertex="1" parent="1">
          <mxGeometry x="510" y="130" width="20" height="20" as="geometry" />
        </mxCell>
        <mxCell id="9xnOEN_wwu08kPwIAvKj-25" value="17" style="rounded=1;whiteSpace=wrap;html=1;strokeColor=none;labelBackgroundColor=none;textOpacity=50;fillColor=none;" vertex="1" parent="1">
          <mxGeometry x="550" y="130" width="20" height="20" as="geometry" />
        </mxCell>
      </root>
    </mxGraphModel>
  </diagram>
</mxfile>
